<?xml version="1.0" encoding="utf-8"?>
<svg fill="#000000" version="1.1" id="Capa_1" width="64px" height="64" viewBox="0 0 64 64" xmlns="http://www.w3.org/2000/svg">
  <path d="M 33.141 16.37 C 32.491 15.662 31.438 15.662 30.789 16.37 L 11.1 37.839 C 10.79 38.178 10.613 38.641 10.613 39.124 L 10.613 54.782 C 10.613 58.456 13.345 61.436 16.713 61.436 L 26.461 61.436 L 26.461 44.969 L 37.468 44.969 L 37.468 61.436 L 47.215 61.436 C 50.584 61.436 53.315 58.456 53.315 54.782 L 53.315 39.124 C 53.315 38.641 53.14 38.178 52.828 37.839 L 33.141 16.37 Z" style="fill: rgb(133, 52, 137);"/>
  <path d="M 60.508 28.554 L 51.556 18.79 L 51.556 7.51 C 51.556 5.47 50.041 3.817 48.169 3.817 C 46.3 3.817 44.785 5.47 44.785 7.51 L 44.785 11.404 L 38.119 4.133 C 34.823 0.541 29.094 0.548 25.805 4.14 L 3.422 28.554 C 2.1 29.997 2.1 32.334 3.422 33.776 C 4.744 35.22 6.89 35.22 8.212 33.776 L 30.593 9.362 C 31.323 8.571 32.608 8.571 33.333 9.359 L 55.719 33.776 C 56.383 34.498 57.248 34.858 58.113 34.858 C 58.98 34.858 59.847 34.497 60.508 33.776 C 61.83 32.335 61.83 29.998 60.508 28.554 Z" style="fill: rgb(133, 52, 137);"/>
</svg>