<?xml version="1.0" encoding="utf-8"?>
<svg fill="#000000" version="1.1" id="Layer_1" width="64px" height="64px" viewBox="0 0 65 65" xmlns="http://www.w3.org/2000/svg">
  <g style="" transform="matrix(0.122122, 0, 0, 0.117188, 1.747054, 2.826607)">
    <path d="M478.42,309.096l-31.099-17.98c2.059-11.397,3.309-23.104,3.309-35.115c0-12.018-1.25-23.705-3.309-35.104l31.081-17.947 c13.764-7.959,18.48-25.551,10.54-39.314l-36.466-63.15c-7.94-13.764-25.532-18.48-39.314-10.536l-31.08,17.931 c-17.818-15.127-38.39-27.059-60.843-35.116V36.884c0-15.903-12.894-28.792-28.797-28.792h-72.859 c-15.903,0-28.792,12.889-28.792,28.792v35.879c-22.553,8.058-43.079,19.989-60.879,35.116L98.846,89.93 c-6.613-3.809-14.478-4.844-21.854-2.865c-7.376,1.977-13.651,6.793-17.475,13.406l-36.447,63.15 c-7.959,13.777-3.242,31.369,10.535,39.328l31.099,17.947c-2.108,11.398-3.34,23.086-3.34,35.104 c0,12.012,1.231,23.718,3.34,35.129l-31.112,17.967c-13.764,7.959-18.48,25.551-10.521,39.314l36.447,63.15 c3.811,6.613,10.099,11.43,17.475,13.406c7.376,1.978,15.24,0.939,21.854-2.885l31.099-17.966 c17.786,15.127,38.325,27.044,60.847,35.053v35.942c0,15.908,12.889,28.797,28.792,28.797h72.859 c15.903,0,28.797-12.889,28.797-28.797v-35.942c22.453-8.009,43.024-19.926,60.811-35.053l31.112,17.966 c13.782,7.945,31.374,3.224,39.332-10.54l36.448-63.132C496.883,334.646,492.166,317.041,478.42,309.096z M256.013,389.314 c-73.636,0-133.318-59.679-133.318-133.314c0-73.623,59.683-133.301,133.318-133.301c73.604,0,133.301,59.678,133.301,133.301 C389.313,329.636,329.617,389.314,256.013,389.314z"/>
    <ellipse style="stroke: rgb(0, 0, 0);" cx="256.965" cy="166.885" rx="20" ry="20"/>
    <ellipse style="stroke: rgb(0, 0, 0);" cx="256.965" cy="227.392" rx="20" ry="20"/>
    <ellipse style="stroke: rgb(0, 0, 0);" cx="257.648" cy="290.034" rx="20" ry="20"/>
    <ellipse style="stroke: rgb(0, 0, 0);" cx="256.965" cy="349.117" rx="20" ry="20"/>
    <ellipse style="stroke: rgb(0, 0, 0);" cx="181.143" cy="277.221" rx="20" ry="20"/>
    <ellipse style="stroke: rgb(0, 0, 0);" cx="180.46" cy="221.697" rx="20" ry="20"/>
    <ellipse style="stroke: rgb(0, 0, 0);" cx="319.126" cy="228.815" rx="20" ry="20"/>
    <ellipse style="stroke: rgb(0, 0, 0);" cx="321.858" cy="287.186" rx="20" ry="20"/>
  </g>
</svg>